<?xml version="1.0" encoding="utf-8"?>
<!-- Generator: Adobe Illustrator 24.0.1, SVG Export Plug-In . SVG Version: 6.00 Build 0)  -->
<svg version="1.1" xmlns="http://www.w3.org/2000/svg" xmlns:xlink="http://www.w3.org/1999/xlink" x="0px" y="0px"
	 viewBox="0 0 1627.12 1424.42" style="enable-background:new 0 0 1627.12 1424.42;" xml:space="preserve">
<style type="text/css">
	.st0{fill:#9D755C;}
	.st1{fill:#FFFFFF;}
</style>
<g id="Layer_1">
</g>
<g id="Layer_2">
</g>
<g id="Layer_3">
	<g>
		<g>
			<path class="st0" d="M169.29,1307.13c-1.26,0.96-2.61,1.78-4.06,2.46c-1.45,0.68-3.01,1.22-4.67,1.6
				c-1.66,0.38-3.52,0.58-5.57,0.58c-3.24,0-6.23-0.6-8.96-1.79c-2.73-1.19-5.1-2.82-7.1-4.89c-2.01-2.07-3.58-4.51-4.71-7.33
				c-1.13-2.82-1.69-5.84-1.69-9.09c0-3.2,0.56-6.21,1.69-9.03c1.13-2.82,2.7-5.28,4.71-7.39c2.01-2.11,4.39-3.78,7.17-4.99
				c2.77-1.22,5.81-1.82,9.09-1.82c2.05,0,3.89,0.17,5.54,0.51c1.64,0.34,3.17,0.82,4.58,1.44s2.71,1.37,3.9,2.24
				c1.19,0.88,2.35,1.85,3.45,2.91l-3.45,3.71c-1.92-1.79-3.98-3.27-6.18-4.42c-2.2-1.15-4.83-1.73-7.91-1.73
				c-2.47,0-4.77,0.47-6.88,1.41c-2.11,0.94-3.95,2.24-5.51,3.9c-1.56,1.67-2.77,3.62-3.65,5.86c-0.88,2.24-1.31,4.66-1.31,7.27
				c0,2.61,0.44,5.04,1.31,7.3c0.87,2.27,2.09,4.23,3.65,5.89c1.56,1.66,3.4,2.97,5.51,3.94c2.11,0.96,4.41,1.44,6.88,1.44
				c3.08,0,5.72-0.56,7.94-1.7c2.22-1.13,4.39-2.72,6.53-4.77l3.33,3.27C171.76,1305.09,170.55,1306.17,169.29,1307.13z"/>
			<path class="st0" d="M200.95,1266.2H206v40.14h25.22v4.67h-30.28V1266.2z"/>
			<path class="st0" d="M265.27,1266.2V1311h-5.06v-44.81H265.27z"/>
			<path class="st0" d="M329.8,1270.87h-27.14v16.01h24.26v4.61h-24.26V1311h-5.06v-44.81h32.2V1270.87z"/>
			<path class="st0" d="M390.99,1270.87h-27.14v16.01h24.26v4.61h-24.26V1311h-5.06v-44.81h32.2V1270.87z"/>
			<path class="st0" d="M424.4,1280.23c0.34,0.86,0.96,1.64,1.86,2.34c0.9,0.7,2.13,1.35,3.71,1.92c1.58,0.58,3.6,1.12,6.08,1.64
				c4.99,1.11,8.67,2.65,11.04,4.62c2.37,1.96,3.55,4.68,3.55,8.14c0,1.92-0.38,3.67-1.14,5.26c-0.76,1.58-1.81,2.93-3.14,4.04
				c-1.33,1.11-2.94,1.96-4.82,2.56s-3.92,0.9-6.14,0.9c-3.59,0-6.86-0.58-9.83-1.74c-2.97-1.15-5.79-2.95-8.48-5.37l3.14-3.71
				c2.35,2.13,4.71,3.72,7.1,4.77c2.39,1.05,5.14,1.57,8.26,1.57c3.03,0,5.45-0.7,7.27-2.11c1.81-1.41,2.72-3.27,2.72-5.58
				c0-1.07-0.17-2.02-0.51-2.85c-0.34-0.83-0.94-1.59-1.8-2.28c-0.85-0.68-2.04-1.3-3.56-1.86c-1.52-0.56-3.45-1.09-5.81-1.6
				c-2.57-0.56-4.8-1.2-6.71-1.92c-1.9-0.73-3.47-1.6-4.71-2.63c-1.24-1.03-2.16-2.22-2.76-3.59c-0.6-1.37-0.9-2.99-0.9-4.87
				c0-1.8,0.36-3.44,1.09-4.94c0.73-1.49,1.75-2.79,3.07-3.88c1.32-1.09,2.88-1.94,4.68-2.57c1.79-0.62,3.76-0.93,5.89-0.93
				c3.29,0,6.15,0.45,8.61,1.36c2.45,0.9,4.83,2.27,7.14,4.08l-2.95,3.9c-2.09-1.71-4.19-2.94-6.3-3.71
				c-2.11-0.77-4.32-1.15-6.63-1.15c-1.45,0-2.76,0.19-3.94,0.58c-1.17,0.39-2.18,0.9-3.01,1.54c-0.83,0.64-1.47,1.41-1.92,2.3
				c-0.45,0.9-0.67,1.86-0.67,2.89C423.89,1278.42,424.06,1279.38,424.4,1280.23z"/>
			<path class="st0" d="M485.66,1266.2V1311h-5.05v-44.81H485.66z"/>
			<path class="st0" d="M555.62,1297.4c-1.15,2.75-2.79,5.13-4.9,7.14c-2.11,2-4.63,3.58-7.55,4.73c-2.93,1.15-6.13,1.73-9.64,1.73
				h-15.55v-44.81h15.55c3.5,0,6.71,0.57,9.64,1.7c2.92,1.13,5.44,2.7,7.55,4.7c2.11,2.01,3.74,4.37,4.9,7.1
				c1.15,2.73,1.73,5.68,1.73,8.83C557.35,1291.7,556.77,1294.65,555.62,1297.4z M550.79,1281.69c-0.88-2.18-2.11-4.06-3.71-5.66
				c-1.6-1.6-3.55-2.86-5.86-3.78c-2.3-0.92-4.87-1.38-7.68-1.38h-10.5v35.46h10.5c2.82,0,5.38-0.45,7.68-1.35s4.26-2.14,5.86-3.74
				c1.6-1.6,2.84-3.47,3.71-5.6c0.87-2.13,1.31-4.46,1.31-6.98C552.1,1286.19,551.66,1283.87,550.79,1281.69z"/>
			<path class="st0" d="M619.63,1270.81H592.3v15.3h24.45v4.61H592.3v15.68h27.65v4.61h-32.71v-44.81h32.39V1270.81z"/>
			<path class="st0" d="M712.78,1267c1.79,0.53,3.32,1.28,4.6,2.24c1.28,0.96,2.26,2.14,2.94,3.52c0.68,1.39,1.03,2.93,1.03,4.64
				c0,1.49-0.2,2.8-0.61,3.9c-0.41,1.11-0.95,2.09-1.63,2.95c-0.68,0.85-1.44,1.57-2.27,2.14c-0.83,0.58-1.69,1.06-2.59,1.44
				c1.32,0.38,2.57,0.89,3.74,1.51c1.17,0.62,2.18,1.35,3.04,2.21c0.85,0.85,1.53,1.88,2.05,3.08c0.51,1.19,0.77,2.56,0.77,4.1
				c0,1.92-0.38,3.65-1.15,5.18c-0.77,1.54-1.87,2.83-3.29,3.87c-1.43,1.04-3.14,1.85-5.14,2.4c-2,0.56-4.22,0.83-6.65,0.83h-19.87
				v-44.81h19.04C708.99,1266.2,710.99,1266.46,712.78,1267z M713.41,1284.11c1.91-1.37,2.87-3.38,2.87-6.04
				c0-2.27-0.85-4.07-2.55-5.4c-1.7-1.33-4.15-2-7.34-2h-13.6v15.49h13.21C709.03,1286.17,711.5,1285.48,713.41,1284.11z
				 M715.84,1304.4c1.96-1.42,2.94-3.41,2.94-5.98c0-2.48-1-4.4-3-5.75c-2-1.35-4.96-2.03-8.88-2.03h-14.11v15.88h15
				C711.2,1306.53,713.89,1305.82,715.84,1304.4z"/>
			<path class="st0" d="M794.89,1311h-5.44l-5.25-11.84h-24.39L754.5,1311h-5.19l20.42-45.13h4.73L794.89,1311z M772.04,1271.83
				l-10.24,22.85h20.42L772.04,1271.83z"/>
			<path class="st0" d="M844.43,1298.72h-0.25l-16.32-23.94V1311h-4.93v-44.81h5.12l16.32,24.45l16.32-24.45h5.12V1311h-5.05v-36.29
				L844.43,1298.72z"/>
			<path class="st0" d="M922.73,1267c1.79,0.53,3.32,1.28,4.6,2.24c1.28,0.96,2.26,2.14,2.94,3.52c0.68,1.39,1.03,2.93,1.03,4.64
				c0,1.49-0.2,2.8-0.61,3.9c-0.41,1.11-0.95,2.09-1.63,2.95c-0.68,0.85-1.44,1.57-2.27,2.14c-0.83,0.58-1.69,1.06-2.59,1.44
				c1.32,0.38,2.57,0.89,3.74,1.51c1.17,0.62,2.18,1.35,3.04,2.21c0.85,0.85,1.53,1.88,2.05,3.08c0.51,1.19,0.77,2.56,0.77,4.1
				c0,1.92-0.38,3.65-1.15,5.18c-0.77,1.54-1.87,2.83-3.29,3.87c-1.43,1.04-3.14,1.85-5.14,2.4c-2,0.56-4.22,0.83-6.65,0.83h-19.87
				v-44.81h19.04C918.94,1266.2,920.94,1266.46,922.73,1267z M923.37,1284.11c1.91-1.37,2.87-3.38,2.87-6.04
				c0-2.27-0.85-4.07-2.55-5.4c-1.7-1.33-4.15-2-7.34-2h-13.6v15.49h13.21C918.98,1286.17,921.45,1285.48,923.37,1284.11z
				 M925.8,1304.4c1.96-1.42,2.94-3.41,2.94-5.98c0-2.48-1-4.4-3-5.75c-2-1.35-4.96-2.03-8.88-2.03h-14.11v15.88h15
				C921.16,1306.53,923.84,1305.82,925.8,1304.4z"/>
			<path class="st0" d="M1005.16,1297.4c-1.11,2.8-2.66,5.26-4.67,7.39c-2.01,2.14-4.42,3.83-7.23,5.09
				c-2.82,1.26-5.93,1.89-9.35,1.89c-3.41,0-6.52-0.62-9.31-1.85c-2.8-1.24-5.2-2.91-7.2-5.03c-2.01-2.11-3.55-4.57-4.64-7.36
				c-1.09-2.79-1.63-5.75-1.63-8.87c0-3.11,0.55-6.07,1.66-8.87c1.11-2.79,2.67-5.26,4.68-7.39c2-2.13,4.42-3.83,7.23-5.09
				c2.82-1.26,5.93-1.89,9.35-1.89c3.42,0,6.52,0.62,9.32,1.85c2.79,1.24,5.2,2.91,7.2,5.03c2.01,2.11,3.55,4.57,4.64,7.36
				c1.09,2.8,1.63,5.75,1.63,8.87C1006.83,1291.65,1006.27,1294.61,1005.16,1297.4z M1000.27,1281.43c-0.88-2.26-2.1-4.23-3.68-5.89
				c-1.58-1.67-3.45-2.99-5.6-3.97c-2.16-0.98-4.51-1.47-7.07-1.47c-2.56,0-4.92,0.48-7.07,1.44c-2.16,0.96-4,2.27-5.54,3.94
				c-1.53,1.67-2.74,3.62-3.61,5.86c-0.88,2.24-1.31,4.64-1.31,7.2c0,2.56,0.44,4.97,1.31,7.23c0.87,2.26,2.1,4.23,3.68,5.89
				c1.58,1.67,3.44,2.99,5.6,3.97c2.16,0.98,4.51,1.47,7.07,1.47c2.56,0,4.92-0.48,7.07-1.44c2.16-0.96,4-2.27,5.54-3.94
				c1.54-1.67,2.74-3.62,3.62-5.86c0.87-2.24,1.31-4.64,1.31-7.2C1001.58,1286.1,1001.14,1283.69,1000.27,1281.43z"/>
			<path class="st0" d="M1078.77,1297.4c-1.11,2.8-2.66,5.26-4.67,7.39c-2.01,2.14-4.42,3.83-7.23,5.09
				c-2.82,1.26-5.93,1.89-9.35,1.89c-3.41,0-6.52-0.62-9.31-1.85c-2.8-1.24-5.2-2.91-7.2-5.03c-2.01-2.11-3.55-4.57-4.64-7.36
				c-1.09-2.79-1.63-5.75-1.63-8.87c0-3.11,0.55-6.07,1.66-8.87c1.11-2.79,2.67-5.26,4.68-7.39c2-2.13,4.42-3.83,7.23-5.09
				c2.82-1.26,5.93-1.89,9.35-1.89s6.52,0.62,9.32,1.85c2.79,1.24,5.2,2.91,7.2,5.03c2.01,2.11,3.55,4.57,4.64,7.36
				c1.09,2.8,1.63,5.75,1.63,8.87C1080.44,1291.65,1079.88,1294.61,1078.77,1297.4z M1073.88,1281.43c-0.88-2.26-2.1-4.23-3.68-5.89
				c-1.58-1.67-3.45-2.99-5.6-3.97c-2.16-0.98-4.51-1.47-7.07-1.47c-2.56,0-4.92,0.48-7.07,1.44c-2.16,0.96-4,2.27-5.54,3.94
				c-1.53,1.67-2.74,3.62-3.61,5.86c-0.88,2.24-1.31,4.64-1.31,7.2c0,2.56,0.44,4.97,1.31,7.23c0.87,2.26,2.1,4.23,3.68,5.89
				c1.58,1.67,3.44,2.99,5.6,3.97c2.16,0.98,4.51,1.47,7.07,1.47c2.56,0,4.92-0.48,7.07-1.44c2.16-0.96,4-2.27,5.54-3.94
				c1.54-1.67,2.74-3.62,3.62-5.86c0.87-2.24,1.31-4.64,1.31-7.2C1075.19,1286.1,1074.75,1283.69,1073.88,1281.43z"/>
			<g>
				<path class="st0" d="M1165.2,1266.86h5.38l-19.04,44.6h-4.43l-19.04-44.6h5.57l15.75,38.15L1165.2,1266.86z"/>
				<path class="st0" d="M1212.59,1266.86v44.28h-5v-44.28H1212.59z"/>
				<path class="st0" d="M1253.39,1266.86h5v39.66h24.92v4.62h-29.92V1266.86z"/>
				<path class="st0" d="M1320.38,1266.86h5v39.66h24.92v4.62h-29.92V1266.86z"/>
				<path class="st0" d="M1428.62,1311.14h-5.38l-5.19-11.7h-24.1l-5.25,11.7h-5.12l20.18-44.6h4.68L1428.62,1311.14z
					 M1406.04,1272.36l-10.12,22.58h20.18L1406.04,1272.36z"/>
				<path class="st0" d="M1480.18,1286.59c9.87,2.15,14.42,5.76,14.42,12.59c0,7.65-6.33,12.59-15.12,12.59
					c-7.02,0-12.78-2.34-18.09-7.09l3.1-3.67c4.62,4.17,9.05,6.26,15.18,6.26c5.95,0,9.87-3.1,9.87-7.59
					c0-4.17-2.21-6.52-11.51-8.48c-10.18-2.21-14.87-5.5-14.87-12.84c0-7.09,6.14-12.15,14.55-12.15c6.45,0,11.07,1.83,15.56,5.44
					l-2.91,3.86c-4.11-3.35-8.22-4.81-12.78-4.81c-5.76,0-9.43,3.16-9.43,7.21C1468.16,1282.17,1470.44,1284.51,1480.18,1286.59z"/>
			</g>
		</g>
		<g>
			<g>
				<g>
					<path class="st0" d="M259.58,997.18l56.4,141.01c6.47,16.41,13.53,32.43,21.19,48.05c3.08,6.47,6.22,12.63,9.4,18.5h-51.18
						l-0.9-3.58c-0.79-2.99-2.93-10.4-6.42-22.23c-3.28-10.65-7.06-21.94-11.34-33.87l-6.71-17.9l-1.79-4.33l-4.18-0.45
						c-2.49-0.2-6.67-0.4-12.53-0.59h-9.55h-18.65c-10.54,0-18.9,0.3-25.07,0.89c-10.05,25.66-17.31,44.62-21.79,56.85
						c-2.09,5.77-4.18,11.64-6.27,17.61c-1.59,4.38-2.39,6.91-2.39,7.61h-30.29c6.66-12.93,13.38-26.71,20.14-41.33l10.29-23.27
						l59.83-140.11L259.58,997.18z M204.52,1105.35c2.59,0.2,4.93,0.3,7.01,0.3h10.59h20.14c6.56,0,13.13-0.1,19.69-0.3
						l-28.35-71.77L204.52,1105.35z"/>
					<path class="st0" d="M494.59,1206.37l-56.25-141.01c-7.07-17.71-14.13-33.72-21.19-48.05c-3.09-6.47-6.22-12.63-9.4-18.5h51.18
						c2.88,11.34,6.86,24.92,11.94,40.73c1.89,6.17,4.93,14.72,9.1,25.66l40.59,104.75l44.32-108.03
						c5.37-13.83,10.79-28.25,16.26-43.27c3.38-9.35,5.72-15.97,7.01-19.84h28.65c-6.96,13.73-13.68,27.55-20.14,41.48
						c-3.38,7.16-6.81,14.87-10.29,23.13l-59.98,140.11L494.59,1206.37z"/>
					<path class="st0" d="M787.79,997.18l56.4,141.01c6.47,16.41,13.53,32.43,21.19,48.05c3.08,6.47,6.22,12.63,9.4,18.5H823.6
						l-0.9-3.58c-0.79-2.99-2.93-10.4-6.42-22.23c-3.28-10.65-7.06-21.94-11.34-33.87l-6.71-17.9l-1.79-4.33l-4.18-0.45
						c-2.49-0.2-6.67-0.4-12.54-0.59h-9.55h-18.65c-10.54,0-18.9,0.3-25.07,0.89c-10.05,25.66-17.31,44.62-21.79,56.85
						c-2.09,5.77-4.18,11.64-6.27,17.61c-1.59,4.38-2.39,6.91-2.39,7.61h-30.29c6.66-12.93,13.38-26.71,20.14-41.33l10.29-23.27
						l59.83-140.11L787.79,997.18z M732.73,1105.35c2.59,0.2,4.93,0.3,7.01,0.3h10.59h20.14c6.56,0,13.13-0.1,19.69-0.3
						l-28.35-71.77L732.73,1105.35z"/>
					<path class="st0" d="M1149.78,1204.73c-23.28-26.26-43.22-48.4-59.83-66.4c-8.56-9.45-18.9-20.59-31.04-33.42
						c-13.23-13.83-22.28-23.08-27.16-27.75c-8.16-7.86-13.93-12.88-17.31-15.07l1.19,65.06c0.99,21.09,2.09,39.49,3.28,55.21
						c0.4,6.76,0.85,12.24,1.34,16.41l0.6,5.97h-27.75c0-5.07,0.15-12.28,0.45-21.64l0.15-7.91c0.4-17.11,0.6-30.98,0.6-41.63
						v-68.34c0-15.02-0.35-31.34-1.04-48.94l-0.9-17.46h17.91c23.38,26.56,43.52,49.19,60.43,67.89
						c14.72,16.41,29.99,33.13,45.81,50.14c14.52,15.72,24.32,25.77,29.39,30.14l-1.34-70.73c-0.59-17.31-1.64-36.06-3.13-56.25
						c-0.2-2.58-0.4-4.48-0.59-5.67c-0.5-6.76-1-11.94-1.49-15.52h27.75c0,4.68-0.05,8.7-0.15,12.09l-0.15,5.37
						c-0.4,11.54-0.65,22.28-0.75,32.23c-0.1,4.78-0.15,11.89-0.15,21.34v68.34c0,17.51,0.3,33.82,0.9,48.94
						c0.3,7.76,0.65,13.63,1.04,17.61H1149.78z"/>
					<path class="st0" d="M1407.61,997.18l56.4,141.01c6.47,16.41,13.53,32.43,21.19,48.05c3.08,6.47,6.22,12.63,9.4,18.5h-51.18
						l-0.9-3.58c-0.79-2.99-2.93-10.4-6.42-22.23c-3.28-10.65-7.06-21.94-11.34-33.87l-6.71-17.9l-1.79-4.33l-4.18-0.45
						c-2.49-0.2-6.67-0.4-12.54-0.59H1390h-18.65c-10.54,0-18.9,0.3-25.07,0.89c-10.05,25.66-17.31,44.62-21.79,56.85
						c-2.09,5.77-4.18,11.64-6.27,17.61c-1.59,4.38-2.39,6.91-2.39,7.61h-30.29c6.66-12.93,13.38-26.71,20.14-41.33l10.29-23.27
						l59.83-140.11L1407.61,997.18z M1352.55,1105.35c2.59,0.2,4.93,0.3,7.01,0.3h10.59h20.14c6.56,0,13.13-0.1,19.69-0.3
						l-28.35-71.77L1352.55,1105.35z"/>
				</g>
			</g>
			<g>
				<path class="st0" d="M829.67,112.65c-217.61,0-394.66,177.04-394.66,394.66c0,217.62,177.04,394.66,394.66,394.66
					c217.62,0,394.66-177.04,394.66-394.66C1224.33,289.69,1047.29,112.65,829.67,112.65z M829.67,850.91
					c-56.69,0-110.21-13.81-157.4-38.23c13.41-10.17,27.58-19.05,42.54-26.58c6.24-3.93,13.02-6.98,20.14-9.14
					c2.06-0.84,4.13-1.65,6.22-2.44l-80.68-73.81c-3.54,14.02-10.8,26.72-20.86,37.03l-31.77,31.74
					c-9.21-7.8-18.01-16.06-26.35-24.78c40.68-42.64,102.78-108.39,142.53-150.15c11.21-11.77,25.71-19.88,41.62-23.21l0.18-0.04
					l-79.45-72.65c-3.51,13.62-10.54,26.08-20.38,36.13L528.79,673.07c-27.2-49.18-42.72-105.69-42.72-165.76
					c0-189.46,154.14-343.6,343.6-343.6c59,0,114.57,14.95,163.13,41.26l-24.04,27.23c-11.13,11.71-25.65,19.88-41.57,23.17
					l-0.17,0.08l79.42,72.65c3.55-13.69,10.56-26.14,20.37-36.2l35.47-37.24c9.72,8.96,18.94,18.46,27.57,28.48L949.71,427.82
					c-11.46,12.04-26.31,20.37-42.55,23.84h-0.25l81.4,74.39c3.55-13.94,10.8-26.72,20.86-36.95l55.34-56.82v0.33l73.75-76.3
					c22.41,45.6,35.02,96.86,35.02,151C1173.27,696.77,1019.13,850.91,829.67,850.91z"/>
				<path class="st0" d="M782.74,552.84c3.51-13.62,10.54-26.08,20.38-36.13l54.05-55.46v0.33l92.29-95.45
					c11.35-11.92,26.04-20.13,42.14-23.51l0.18-0.04l-80.45-73.57c-3.55,13.79-10.67,26.41-20.64,36.58l-145.6,151.33
					c-11.21,11.77-25.71,19.88-41.62,23.21l-0.18,0.04L782.74,552.84L782.74,552.84z"/>
				<path class="st0" d="M973.28,540.92l-82.39-75.35c-3.64,14.13-10.93,27.05-21.14,37.47L720.63,658.02
					c-11.48,12.06-26.33,20.36-42.62,23.78l-0.19,0.04l81.37,74.41h0c3.59-13.95,10.79-26.71,20.88-37l55.35-56.79v0.34l94.52-97.76
					c11.62-12.21,26.66-20.61,43.16-24.07L973.28,540.92z"/>
				<path class="st0" d="M635.22,298.43c-38.86,119.87,43.04,164.48,43.04,164.48C738.19,382.07,635.22,298.43,635.22,298.43z"/>
				<path class="st0" d="M598.48,487.12c55.56,24.86,81.22-12.16,81.22-12.16C643.97,441.99,598.48,487.12,598.48,487.12z"/>
				<rect x="941.7" y="610.91" class="st0" width="40.48" height="40.49"/>
				<rect x="1011.52" y="610.91" class="st0" width="40.49" height="40.49"/>
				<rect x="941.7" y="678.56" class="st0" width="40.48" height="40.48"/>
				<rect x="1011.52" y="678.56" class="st0" width="40.49" height="40.48"/>
			</g>
		</g>
	</g>
</g>
</svg>
